<?xml version="1.0" standalone="no"?>
<!DOCTYPE svg PUBLIC "-//W3C//DTD SVG 20010904//EN"
 "http://www.w3.org/TR/2001/REC-SVG-20010904/DTD/svg10.dtd">
<svg version="1.0" xmlns="http://www.w3.org/2000/svg"
 width="113.000000pt" height="46.000000pt" viewBox="0 0 113.000000 46.000000"
 preserveAspectRatio="xMidYMid meet">

<g transform="translate(0.000000,46.000000) scale(0.100000,-0.100000)"
fill="#211708" stroke="none">
<path d="M208 261 c-7 -44 3 -102 16 -98 6 2 11 17 11 33 0 22 5 30 23 32 19
3 22 -1 22 -33 0 -25 4 -35 13 -33 15 6 23 128 7 128 -5 0 -10 -9 -10 -20 0
-14 -7 -20 -24 -20 -15 0 -26 7 -29 20 -8 29 -24 24 -29 -9z"/>
<path d="M366 238 c-9 -29 -20 -59 -23 -65 -2 -7 1 -13 7 -13 7 0 14 9 17 20
4 13 14 20 30 20 16 0 27 -7 30 -20 6 -23 23 -27 23 -6 0 25 -43 116 -55 116
-6 0 -19 -24 -29 -52z m44 -9 c0 -5 -4 -9 -10 -9 -5 0 -10 7 -10 16 0 8 5 12
10 9 6 -3 10 -10 10 -16z"/>
<path d="M489 263 c-2 -35 2 -97 6 -101 8 -8 75 23 75 35 0 9 -6 10 -26 3 -33
-13 -34 -13 -34 5 0 9 9 15 25 15 14 0 25 5 25 10 0 6 -11 10 -25 10 -16 0
-25 6 -25 16 0 11 8 14 27 12 15 -2 28 2 30 10 3 8 -8 12 -36 12 -38 0 -41 -2
-42 -27z"/>
<path d="M607 283 c-3 -5 3 -22 14 -39 10 -16 19 -41 19 -56 0 -16 5 -28 10
-28 6 0 10 15 10 34 0 19 9 45 21 60 12 15 18 30 14 34 -3 4 -15 -4 -26 -18
l-19 -25 -19 24 c-10 13 -21 19 -24 14z"/>
<path d="M790 246 c0 -41 -19 -74 -33 -59 -4 3 -7 26 -7 50 0 33 -4 43 -16 43
-14 0 -16 -8 -11 -46 6 -54 26 -79 55 -70 25 8 45 64 36 100 -10 41 -24 30
-24 -18z"/>
<path d="M840 225 c0 -37 4 -65 10 -65 6 0 10 16 10 37 0 36 0 36 21 17 20
-18 21 -18 35 1 13 17 14 16 14 -19 0 -26 4 -36 13 -33 8 2 11 22 8 63 -1 32
-5 61 -8 64 -5 5 -17 -10 -39 -46 -10 -16 -12 -15 -29 14 -11 18 -23 32 -27
32 -4 0 -8 -29 -8 -65z"/>
</g>
</svg>
