<svg width="25" height="24" viewBox="0 0 25 24" fill="none" xmlns="http://www.w3.org/2000/svg">
<path d="M23.15 7.3877C22.7 6.9377 22.1 6.67519 21.4625 6.67519H18.725V5.2127C18.725 4.8002 18.575 3.8252 17.15 3.8252H7.77495C6.42495 3.8252 6.27495 4.8002 6.27495 5.2127V6.67519H3.53745C2.22495 6.67519 1.13745 7.7627 1.13745 9.0752V17.7752C1.13745 19.0877 2.22495 20.1752 3.53745 20.1752H21.4249C22.7374 20.1752 23.825 19.0877 23.825 17.7752V9.0752C23.8625 8.4377 23.6 7.8377 23.15 7.3877ZM22.1375 17.7752C22.1375 18.1502 21.8375 18.4877 21.4249 18.4877H3.53745C3.16245 18.4877 2.82495 18.1877 2.82495 17.7752V9.0752C2.82495 8.7002 3.12495 8.36269 3.53745 8.36269H6.72495C7.39995 8.36269 7.96245 7.80019 7.96245 7.1252V5.5127H17V7.1252C17 7.80019 17.5625 8.36269 18.2374 8.36269H21.4625C21.65 8.36269 21.8375 8.4377 21.95 8.58769C22.1 8.73769 22.1375 8.8877 22.1375 9.0752V17.7752Z" fill="#211708"/>
<path d="M12.35 8.8125C10.4 8.8125 8.82495 10.3875 8.82495 12.375C8.82495 14.325 10.3625 15.8625 12.35 15.8625C14.3 15.8625 15.875 14.2875 15.875 12.375C15.875 10.4625 14.2625 8.8125 12.35 8.8125ZM12.35 14.175C11.3 14.175 10.5125 13.3875 10.5125 12.375C10.5125 11.3625 11.3375 10.5 12.35 10.5C13.3625 10.5 14.1875 11.3625 14.1875 12.375C14.1875 13.3875 13.3625 14.175 12.35 14.175Z" fill="#211708"/>
<path d="M5.67495 9.4873H4.81245C4.36245 9.4873 3.94995 9.86231 3.94995 10.3498C3.94995 10.8373 4.32495 11.2123 4.81245 11.2123H5.67495C6.12495 11.2123 6.53745 10.8373 6.53745 10.3498C6.53745 9.86231 6.16245 9.4873 5.67495 9.4873Z" fill="#211708"/>
</svg>
