<svg width="25" height="32" viewBox="0 0 25 32" fill="none" xmlns="http://www.w3.org/2000/svg">
<g clip-path="url(#clip0_412_1030)">
<path d="M12.3 25.8996C12.1125 25.8996 11.925 25.8621 11.775 25.7871C4.42505 22.4496 1.42505 19.1871 1.42505 14.5371C1.42505 9.88711 5.32505 6.09961 10.125 6.09961H15.375C20.175 6.09961 24.1125 9.88711 24.1125 14.5371C24.1125 19.1871 20.175 23.0121 15.375 23.0121H13.575V24.6246C13.575 25.0746 13.35 25.4871 12.975 25.7121C12.7875 25.8246 12.525 25.8996 12.3 25.8996ZM10.125 7.78711C6.26255 7.78711 3.07505 10.8246 3.07505 14.5371C3.07505 18.3621 5.55005 21.0246 11.8875 23.9871V22.5996C11.8875 21.8871 12.4875 21.2871 13.2 21.2871H15.375C19.2375 21.2871 22.425 18.2496 22.425 14.5371C22.425 10.8246 19.275 7.78711 15.375 7.78711H10.125Z" fill="#B57D2E"/>
</g>
<defs>
<clipPath id="clip0_412_1030">
<rect width="24" height="24" fill="white" transform="translate(0.75 4)"/>
</clipPath>
</defs>
</svg>
