<svg width="18" height="18" viewBox="0 0 18 12" fill="none" xmlns="http://www.w3.org/2000/svg">
<path fill-rule="evenodd" clip-rule="evenodd" d="M18 7.99993C18 8.41414 17.6642 8.74993 17.25 8.74993H2.56029L8.03061 14.2193C8.32366 14.5124 8.32366 14.9875 8.03061 15.2806C7.73755 15.5736 7.26241 15.5736 6.96935 15.2806L0.219355 8.53055C0.0785218 8.38988 -0.000610352 8.19899 -0.000610352 7.99993C-0.000610352 7.80087 0.0785218 7.60998 0.219355 7.4693L6.96935 0.719304C7.26241 0.426248 7.73755 0.426248 8.03061 0.719304C8.32366 1.01236 8.32366 1.4875 8.03061 1.78055L2.56029 7.24993H17.25C17.6642 7.24993 18 7.58571 18 7.99993Z" fill="#211708"/>
</svg>
