<svg width="25" height="24" viewBox="0 0 25 24" fill="none" xmlns="http://www.w3.org/2000/svg">
<g clip-path="url(#clip0_412_1024)">
<path fill-rule="evenodd" clip-rule="evenodd" d="M12.25 2.25C6.86522 2.25 2.5 6.61522 2.5 12C2.5 17.3848 6.86522 21.75 12.25 21.75C17.6348 21.75 22 17.3848 22 12C21.9943 6.61758 17.6324 2.25568 12.25 2.25ZM12.25 20.25C7.69365 20.25 4 16.5563 4 12C4 7.44365 7.69365 3.75 12.25 3.75C16.8063 3.75 20.5 7.44365 20.5 12C20.4948 16.5542 16.8042 20.2448 12.25 20.25ZM16.4144 6.82875L10.4144 9.82875C10.2693 9.90162 10.1516 10.0193 10.0787 10.1644L7.07875 16.1644C6.96237 16.397 6.97478 16.6732 7.11155 16.8944C7.24832 17.1156 7.48993 17.2502 7.75 17.25C7.86643 17.2498 7.98127 17.2229 8.08563 17.1712L14.0856 14.1713C14.2307 14.0984 14.3484 13.9807 14.4213 13.8356L17.4212 7.83563C17.5664 7.54669 17.5101 7.19724 17.2814 6.96859C17.0528 6.73995 16.7033 6.68358 16.4144 6.82875ZM13.1875 12.9375L9.42719 14.8228L11.3125 11.0625L15.0766 9.18094L13.1875 12.9375Z" fill="#B57D2E"/>
</g>
<defs>
<clipPath id="clip0_412_1024">
<rect width="24" height="24" fill="white" transform="translate(0.25)"/>
</clipPath>
</defs>
</svg>
